PathFileType	4	(X/Y/Z)	C:\Users\WrightLab\Desktop\Jo\P4V121.trc
DataRate	CameraRate	NumFrames	NumMarkers	Units	OrigDataRate	OrigDataStartFrame	OrigNumFrames
100.00	100.00	       10	19	mm	100.00	483	       551
Frame#	Time	Headset_Front			Headset_Back			Headset_Left			Headset_Right			Left_Shoulder			Right_Shoulder			Sternum			C7			Left Elbow			Right Elbow			Left Wrist			Right Wrist			Left ASIS			Right ASIS			S2			Left Knee			Right Knee			Left Ankle			Right Ankle			
		X1	Y1	Z1	X2	Y2	Z2	X3	Y3	Z3	X4	Y4	Z4	X5	Y5	Z5	X6	Y6	Z6	X7	Y7	Z7	X8	Y8	Z8	X9	Y9	Z9	X10	Y10	Z10	X11	Y11	Z11	X12	Y12	Z12	X13	Y13	Z13	X14	Y14	Z14	X15	Y15	Z15	X16	Y16	Z16	X17	Y17	Z17	X18	Y18	Z18	X19	Y19	Z19	

483	4.820	-176.95409	1741.97144	2348.53394	-236.88510	1772.45496	2216.24268							29.69510	1582.77612	2226.32471	-3.78772	1771.70667	2232.37646	-144.02765	1520.70630	2245.36328				67.10500	1260.79492	2401.39868				-154.21124	1089.51172	2542.19629	-403.29376	960.57239	2181.68091	-3.45556	1085.90796	2315.79907	-356.10193	1227.26123	2033.48499	-301.66891	1087.17432	2165.15210	7.03244	595.42767	2290.50732	-309.53409	603.89679	2184.88208	8.52421	104.71117	2185.85376	-194.78535	104.72472	2157.02344	
484	4.830	-178.83029	1741.59351	2350.20947	-237.93477	1772.11414	2217.08057							28.76976	1582.17114	2226.34961	-5.50409	1772.35730	2234.19019	-145.44312	1521.31934	2247.01147				66.42983	1259.05042	2399.95972				-157.37473	1091.22034	2540.36475	-404.67432	960.72388	2187.24976	-6.62561	1086.10718	2319.34766	-358.96814	1227.05542	2036.63855	-304.79172	1087.28247	2168.81445	4.65972	595.26349	2293.17236	-309.76630	603.05988	2185.26953	8.60074	104.68687	2185.84546	-194.78313	104.65444	2157.02246	
485	4.840	-180.24052	1740.98792	2350.91064										27.96346	1581.57703	2226.54883	-6.88721	1772.37817	2235.38306	-146.80302	1521.67859	2248.46094				65.93755	1256.64856	2398.27002				-160.44270	1093.29761	2538.98120	-406.15701	961.43695	2192.19873	-9.02191	1085.64368	2322.40601	-362.88156	1227.00769	2041.23010	-308.05301	1086.84827	2172.34595	4.06361	595.08276	2293.85474	-309.77002	602.35254	2185.35840	8.47740	104.69438	2185.87329	-194.36200	103.29222	2159.55273	
486	4.850	-182.09210	1740.67407	2352.33643	-241.89314	1771.88513	2220.55396							26.61324	1581.30554	2227.72144	-8.67445	1772.21790	2236.72095	-148.72655	1521.97192	2250.14380				66.43392	1254.62097	2396.79468				-162.22154	1093.65112	2535.96265	-407.66580	961.27533	2196.47510	-12.35636	1085.71387	2326.24658	-365.96078	1226.83545	2044.91064	-311.38727	1087.91907	2175.28906	2.94791	594.94238	2294.85083	-309.68958	601.81848	2185.46094	8.48777	104.80766	2185.93091	-194.25182	103.48602	2159.39844	
487	4.860	-184.09140	1740.24377	2353.69336	-243.38069	1771.29919	2221.01831							25.30259	1581.01794	2228.41675	-10.69738	1772.12708	2237.98291	-150.62393	1522.28333	2251.91260				66.93176	1252.83350	2395.76367				-164.38777	1093.98413	2533.29077	-408.85959	961.35040	2201.20093	-16.04122	1086.32434	2330.59277	-368.99899	1227.07764	2048.25635	-314.14230	1087.32666	2178.49976	0.71017	594.11206	2294.83765	-309.05658	600.30377	2188.37646	8.56993	104.96399	2185.61133	-194.08150	103.65318	2159.16431	
488	4.870	-185.36661	1739.75537	2354.69385	-245.03387	1770.42188	2222.10791							23.75390	1580.73425	2229.32031	-12.37928	1771.75818	2238.25732	-152.47391	1522.83533	2253.57544				66.54475	1251.32520	2394.27710				-165.38785	1094.70959	2530.88892	-410.09109	961.96399	2206.57983	-18.69006	1085.74255	2333.39209	-372.68069	1226.87695	2053.53296	-316.41931	1087.79126	2180.91504	-1.67924	594.68805	2297.50293	-309.31638	600.21252	2188.98950	8.52019	105.06327	2185.46484	-194.04257	103.74161	2159.10938	
489	4.880	-187.25008	1740.08582	2356.19580	-247.40640	1771.25806	2224.18726							22.24440	1580.29797	2229.98755				-154.10025	1523.24316	2255.10254				67.60475	1248.11658	2391.12427				-166.67941	1094.55652	2528.24048	-411.41592	962.86133	2211.32568	-21.29838	1084.69409	2336.39575	-375.25726	1226.97803	2056.13770	-319.18695	1088.22644	2183.92456	-3.41231	595.02362	2298.39038	-309.67056	600.18048	2189.72632	8.44712	105.16186	2185.56592	-193.96463	103.81252	2159.00244	
490	4.890	-189.01097	1739.79163	2356.76416	-249.08240	1771.09521	2224.82227							20.55309	1580.23853	2230.72925				-156.37144	1524.10632	2257.07959				67.72849	1246.26770	2389.51563				-166.68216	1094.40027	2525.99219	-412.40341	962.80688	2215.32861	-23.69007	1083.88696	2338.90283	-378.86801	1227.04749	2059.00732				-4.86974	595.87762	2300.80469	-310.04962	600.17542	2190.59668	8.42847	105.20105	2185.59985	-193.95570	103.88049	2158.98828	
491	4.900	-190.91643	1739.87842	2357.02393	-250.62979	1771.17358	2224.84204							18.71319	1580.15710	2231.80542	-17.78314	1772.65552	2240.76880	-158.01157	1523.87866	2258.05835				69.23752	1244.36597	2386.68823				-167.20978	1093.61340	2523.23169	-413.93079	964.13843	2220.25684	-25.66702	1082.03235	2340.72876	-381.98523	1227.13574	2062.96069				-6.64784	596.34033	2302.35815	-310.61502	600.39380	2191.50391	8.36790	105.27578	2185.67969	-194.08565	103.76461	2159.16650	
492	4.910	-192.32518	1740.21960	2357.70435	-253.24231	1771.81213	2226.22729							16.91641	1580.24634	2233.67725	-19.86071	1772.53516	2241.21973	-159.91360	1524.12512	2259.93970				69.66270	1243.11255	2385.69580				-166.05350	1091.68726	2519.66919	-414.92548	964.76166	2225.32983	-27.36395	1080.23669	2342.56250	-384.69165	1227.34631	2066.41626				-8.51802	596.46045	2304.37964	-311.49124	600.40143	2190.00391	8.04558	105.72729	2185.42993	-194.06534	103.74463	2159.13989	
